<svg xmlns="http://www.w3.org/2000/svg" width="310" height="416" fill="none" viewBox="0 0 310 416"><g fill="#fff" fill-opacity=".05" fill-rule="evenodd" clip-path="url(#a)" clip-rule="evenodd"><path d="M-43.376-15.76h-119.167l-36.844 113.15 96.424 69.921 96.423-69.92zm-167.013 116.72 41.04-126.065h132.771L4.47 100.96l-107.433 77.916z"/><path d="M-36.61-26.988H-170.65l-41.434 127.922 108.449 79.051L4.815 100.934zm-186.018 131.357 45.459-140.353h147.068L15.35 104.369l-118.985 86.746z"/><path d="M-28.816-38.207H-178.47l-46.238 142.68 121.069 88.17 121.068-88.17zm-206.05 145.981 50.132-154.637h162.183l50.14 154.637-131.227 95.579z"/><path d="M-21.006-49.426h-165.265l-51.076 157.431 133.705 97.296L30.07 108.005zM-247.104 111.18l54.808-168.921h177.324l54.8 168.921-143.47 104.413z"/><path d="M-13.192-60.651H-194.08l-55.909 172.204 146.345 106.427L42.709 111.553zm-246.152 175.237 59.479-183.207H-7.413l59.48 183.207-155.71 113.245z"/><path d="M-5.39-70.508h-196.498l-60.743 186.951 158.988 115.553L55.352 116.443zm-266.194 189.866 64.15-197.498H.148l64.157 197.498-167.948 122.072z"/><path d="M2.427-81.74h-212.119l-65.564 201.734 171.619 124.665L67.99 119.994zm-286.248 204.515 68.831-211.794H7.714l68.831 211.794-180.183 130.894z"/><path d="M10.23-92.95h-227.736l-70.395 216.485 184.263 133.787L80.625 123.535zm-306.29 219.133 73.506-226.081H15.277l73.506 226.081-192.422 139.725z"/><path d="M18.038-104.174h-243.365l-75.221 231.239 196.908 142.92 196.907-142.92zM-308.3 129.587l78.184-240.364H22.829l78.192 240.364-204.66 148.559z"/><path d="M25.86-115.414h-258.984l-80.052 246.019 209.536 152.05 209.552-152.05zm-346.398 248.415 82.867-254.657H30.401l82.86 254.657-216.9 157.384z"/><path d="M33.66-126.623h-274.598l-84.875 260.769 222.17 161.172 222.178-161.172zm-366.437 263.024 87.533-268.936h283.21L125.5 136.401l-229.142 166.223z"/><path d="M41.48-137.846H-248.75l-89.709 275.542 234.823 170.292 234.824-170.292zm-384.856 278.847-1.639-1.191 92.211-283.224H45.544L137.74 139.81l-241.374 175.053z"/><path d="M49.279-149.063h-305.842l-94.54 290.284 247.461 179.421 247.461-179.421zm-406.534 292.289 96.879-297.519h313.46l96.894 297.519-253.621 183.876z"/><path d="M57.098-158.934h-321.474l-99.366 305.066 260.103 188.532 260.103-188.532zm-426.592 306.921 101.555-311.799h328.6l101.555 311.799-265.855 192.714z"/><path d="M65.174-170.158h-336.267l-103.933 319.827 272.063 197.657 272.07-197.657zm-445.547 321.557 105.985-326.09H68.47l105.985 326.09-277.418 201.54z"/><path d="M72.986-181.366h-351.895l-108.768 334.568 284.716 206.786 284.723-206.786zm-464.368 337.073-1.229-.9 110.663-340.377H76.039l110.655 340.377-289.656 210.371z"/><path d="M80.793-192.598H-286.71l-113.59 349.339 297.341 215.909 297.349-215.909zM-404.85 158.213l115.337-354.662H83.605l115.329 354.662-301.892 219.204z"/><path d="M207.035 160.287 88.61-203.813H-294.52l-118.432 364.1 309.994 225.032zm-623.09 2.098-1.034-.752 119.607-367.748.4-1.213H91.165l120.007 368.961-313.097 227.279-1.034.744z"/><path d="M96.423-215.037h-398.764l-123.25 378.854 322.636 234.156 322.628-234.156zM-429.33 165.038l124.684-383.245H98.726L223.41 165.038l-326.366 236.857z"/><path d="M104.229-226.26h-414.381l-128.091 393.63 335.286 243.273L232.32 167.37zm-544.964 395.313-.831-.595 129.031-396.566.322-.978h418.511L235.329 167.48l.321.978-338.608 245.676z"/><path d="M112.048-236.124h-430.015L-450.883 172.26l347.92 252.397L244.964 172.26zm-565.125 409.863-.729-.532 133.747-410.951.29-.861h433.62l133.763 410.951.274.861-350.851 254.525z"/><path d="M257.588 175.803 119.857-247.324h-445.623l-137.738 423.127 360.546 261.515zm-722.99 1.276-.643-.462 138.475-425.35.243-.751h448.743l138.468 425.358.243.743-362.451 262.885-.635.469z"/><path d="M127.67-258.555h-461.256l-142.572 437.898 373.196 270.645 373.196-270.645zm-605.428 438.978-.526-.392 143.184-439.76.196-.634h463.883L272.17 179.413l.196.618-375.329 272.179z"/><path d="M282.88 182.883 135.482-269.779h-476.874l-147.405 452.662 385.838 279.75zm-772.963.869-.439-.321 147.899-454.172.165-.501h479.007L284.441 182.93l.164.501-387.124 280.697-.439.321z"/><path d="M295.512 187.255 143.29-281.008h-492.495l-152.23 468.263 398.469 289.397zm-797.935.666-.337-.235 152.739-469.807h494.126l152.74 469.807-399.481 290.119-.33.243z"/><path d="m-357.59-293-.087.274L-515 191.088l.235.173 411.806 299.025.228-.172 411.814-299.026-.079-.266L151.681-293zm-156.493 483.79 157.073-483.014H151.1L308.165 190.79l-411.124 298.517z"/></g><defs><clipPath id="a"><path fill="#fff" d="M0 0h310v416H0z"/></clipPath></defs></svg>