<svg id="eJ03RhYSu5g1" xmlns="http://www.w3.org/2000/svg" xmlns:xlink="http://www.w3.org/1999/xlink" viewBox="0 0 350.6 73.1" shape-rendering="geometricPrecision" text-rendering="geometricPrecision" project-id="c5ecb7230f874e1cabdd2f988ca617e3" export-id="ef607611f06e411e9c809b9f9a41b7dc" cached="false">
<style><![CDATA[
#eJ03RhYSu5g25_tr {animation: eJ03RhYSu5g25_tr__tr 5000ms linear infinite normal forwards}@keyframes eJ03RhYSu5g25_tr__tr { 0% {transform: translate(13.100702px,19.247914px) rotate(0deg);animation-timing-function: cubic-bezier(0.42,0,0.58,1)} 16% {transform: translate(13.100702px,19.247914px) rotate(13.048937deg);animation-timing-function: cubic-bezier(0.42,0,0.58,1)} 26% {transform: translate(13.100702px,19.247914px) rotate(7.225393deg);animation-timing-function: cubic-bezier(0.42,0,0.58,1)} 36% {transform: translate(13.100702px,19.247914px) rotate(10.882896deg);animation-timing-function: cubic-bezier(0.42,0,0.58,1)} 50% {transform: translate(13.100702px,19.247914px) rotate(0deg)} 100% {transform: translate(13.100702px,19.247914px) rotate(0deg)}} #eJ03RhYSu5g27_tr {animation: eJ03RhYSu5g27_tr__tr 5000ms linear infinite normal forwards}@keyframes eJ03RhYSu5g27_tr__tr { 0% {transform: translate(47.518225px,49.672982px) rotate(0deg)} 12% {transform: translate(47.518225px,49.672982px) rotate(0deg);animation-timing-function: cubic-bezier(0.42,0,0.58,1)} 30% {transform: translate(47.518225px,49.672982px) rotate(-14.799257deg);animation-timing-function: cubic-bezier(0.42,0,0.58,1)} 40% {transform: translate(47.518225px,49.672982px) rotate(-7.532802deg);animation-timing-function: cubic-bezier(0.42,0,0.58,1)} 52% {transform: translate(47.518225px,49.672982px) rotate(-14.381088deg);animation-timing-function: cubic-bezier(0.42,0,0.58,1)} 74% {transform: translate(47.518225px,49.672982px) rotate(0deg)} 100% {transform: translate(47.518225px,49.672982px) rotate(0deg)}}
]]></style>
<g><g><path d="M92.5,31.1c-1.6-.9-3.4-1.4-5.3-1.4s-3.5.4-4.9,1.3c-1.1.7-1.9,1.5-2.6,2.4v-7.3c0-.9,0-2.1.1-3.4s.1-2.7.2-4s.3-2.5.5-3.4c-1.7.3-3.3.5-5.1.6-1.7.1-3.2.1-4.4.1-.1.7-.1,1.4,0,2.1h3c.4,2.7.5,5.3.5,8v19.1c0,.9,0,2-.1,3.2c0,1.2-.1,2.4-.2,3.6s-.2,2.3-.3,3.2c.3.1.6.2.9.2s.6.1.9.1l1.9-1.9c.6.4,1.2.8,1.9,1.2c1.5.8,3.4,1.2,5.8,1.2c2.5,0,4.7-.5,6.6-1.6s3.3-2.6,4.4-4.6c1-2,1.6-4.5,1.6-7.3c0-2.9-.5-5.3-1.4-7.1-1.1-1.9-2.4-3.3-4-4.3Zm-2.1,20c-1.2,1.8-2.8,2.7-4.9,2.7-.8,0-1.7-.2-2.6-.5s-1.6-1-2.2-1.9-.9-2.2-.9-4v-10.7c.8-1.3,1.6-2.3,2.5-3.2s2.1-1.3,3.5-1.3c1.9,0,3.4.9,4.6,2.7s1.8,4.5,1.8,8.3c-.1,3.5-.7,6.1-1.8,7.9Z" fill="#0d0f1a"/><path d="M114.8,41.5c1.5,0,2.7,0,3.8.1c1,.1,2,.2,3,.3c0-2.8-.4-5.1-1.3-6.9s-2.1-3.1-3.7-4-3.5-1.3-5.8-1.3c-2.4,0-4.5.5-6.3,1.5s-3.3,2.5-4.3,4.4-1.6,4.4-1.6,7.2c0,2.9.5,5.4,1.5,7.3c1,2,2.4,3.4,4.2,4.4s3.8,1.5,6.1,1.5c2.2,0,4.3-.5,6.1-1.5s3.5-2.6,5-4.6c-.3-.3-.5-.6-.7-.8s-.5-.4-.8-.6c-1.3,1.7-2.6,2.9-3.9,3.7-1.3.7-2.7,1.1-4.2,1.1-2.3,0-4.2-.9-5.6-2.6-1.4-1.8-2.1-4.4-2.1-8c0-.4,0-.8,0-1.2h10.6Zm-9.9-4.7c.5-1.6,1.3-2.8,2.2-3.7c1-.9,2.1-1.3,3.4-1.3c1.5,0,2.8.6,3.8,1.9s1.5,3.2,1.5,5.8h-11.5c.1-.9.3-1.8.6-2.7Z" fill="#0d0f1a"/><path d="M226.5,31.1c-1.6-.9-3.4-1.4-5.3-1.4s-3.5.4-4.9,1.3c-1.1.7-1.9,1.5-2.6,2.4v-7.3c0-.9,0-2.1.1-3.4s.1-2.7.2-4s.3-2.5.5-3.4c-1.7.3-3.3.5-5.1.6-1.7.1-3.2.1-4.5.1-.1.7-.1,1.4,0,2.1h3.1c.4,2.7.5,5.3.5,8v4.4c-.6,0-1.1,0-1.7.1-.9,0-1.8,0-2.5,0-.6,0-1.4,0-2.3,0-1,0-2,0-3.1-.1-.1.3-.3.6-.3,1-.1.4-.1.8-.1,1.1h2.3c.7,1.4,1,2.8,1,4.4c0,2.1-.5,4.1-1.6,6.1-.9,1.6-2,3-3.4,4.3-.2-.3-.4-.7-.6-1l-6.9-13.2c2-.7,3.8-1.5,5.5-2.5c1.9-1.1,3.4-2.4,4.5-3.9s1.7-3.2,1.7-5.1c0-2.1-.7-3.7-2.1-4.8s-3.5-1.7-6.2-1.7c-2.5,0-4.7.5-6.6,1.5s-3.4,2.3-4.4,4-1.6,3.7-1.6,6c0,1.8.3,3.3.8,4.8.4.9.8,1.8,1.2,2.7-1,.4-2,.8-2.9,1.2-1.7.8-3.3,1.7-4.6,2.8-1.4,1.1-2.4,2.3-3.2,3.8-.8,1.4-1.2,3-1.2,4.8c0,.2,0,.3,0,.5-.1-1-.5-1.9-1-2.7-.7-1-1.7-1.7-2.8-2.3-1.2-.6-2.4-1.1-3.7-1.4-1.3-.4-2.5-.8-3.7-1.1-1.2-.4-2.1-.9-2.8-1.4-.7-.6-1.1-1.3-1.1-2.3c0-1.2.4-2.1,1.3-2.8s2.1-1,3.8-1c1.9,0,3.3.5,4.3,1.6c1,1,1.7,2.7,2.1,4.9.6.1,1.2.1,1.7,0v-7.1c-1.1-.5-2.3-.9-3.6-1.2s-2.6-.4-3.9-.4c-3.1,0-5.4.7-7,2s-2.5,3.2-2.5,5.4c0,1.7.4,3.1,1.1,4.1s1.6,1.8,2.8,2.4c1.1.6,2.3,1.1,3.6,1.4s2.4.7,3.6,1c1.1.3,2.1.8,2.8,1.3.7.6,1.1,1.3,1.1,2.4c0,1.3-.5,2.3-1.6,2.9-1.1.7-2.4,1-4,1-2.4,0-4.2-.6-5.5-1.9-1.2-1.3-2.1-3-2.5-5.3-.6-.1-1.2-.1-1.7,0v6.7c-.1-.2-.3-.4-.4-.6-.2-.3-.5-.5-.8-.7-.4.4-.9.8-1.5,1.1s-1.1.4-1.7.4c-.7,0-1.3-.3-1.6-.8-.4-.5-.6-1.4-.6-2.7v-12.2c0-1.7,0-3.4,0-5.2h6.2c.1-.7.1-1.5,0-2.2h-6.2c0,0,0-.1,0-.1c0-2.5.1-5,.3-7.5-.6-.1-1.2-.1-1.7,0-.3.6-.6,1.1-1,1.6s-.9,1-1.4,1.4-1.1.7-1.8.9c.1,1,.2,2.2.3,3.6c0,0,0,.1,0,.1h-2.5-1.1-5c0,0,0-.1,0-.1c0-2.5.1-5,.3-7.5-.6-.1-1.2-.1-1.7,0-.3.6-.6,1.1-1,1.6s-.9,1-1.4,1.4-1.1.7-1.8.9c.1,1,.2,2.2.3,3.6c0,0,0,.1,0,.1h-3.6c-.1.7-.1,1.5,0,2.2h3.7c0,.5,0,1.1,0,1.6c0,1.3,0,2.4,0,3.4v12.4c0,2.1.6,3.5,1.7,4.5c1.2.9,2.7,1.4,4.5,1.4c1.5,0,2.6-.2,3.4-.7s1.5-1.1,2.2-1.8c-.2-.3-.4-.6-.6-.8-.2-.3-.5-.5-.8-.7-.4.4-.9.8-1.5,1.1s-1.1.4-1.7.4c-.7,0-1.3-.3-1.6-.8-.4-.5-.6-1.4-.6-2.7v-12.1c0-1.7,0-3.4,0-5.2h5h1.1h2.6c0,.5,0,1.1,0,1.6c0,1.3,0,2.4,0,3.4v12.4c0,2.1.6,3.5,1.7,4.5c1.2.9,2.7,1.4,4.5,1.4c1.5,0,2.6-.2,3.4-.7.7-.4,1.4-.9,2-1.6v.6c1.6.6,3.2,1,4.6,1.3c1.5.3,3,.4,4.5.4c3.3,0,5.9-.7,7.7-2s2.8-3.3,2.8-5.8c0-.1,0-.1,0-.2.2,1.5.7,2.7,1.5,3.8c1.1,1.4,2.5,2.4,4.3,3.1s3.9,1,6.2,1c2.6,0,5.1-.4,7.5-1.3c1-.4,2-.9,3-1.4.1.1.1.2.2.3.6.7,1.4,1.3,2.3,1.6.9.4,2.1.6,3.5.6s3.2-.1,5.4-.4c.1-.3.2-.6.3-1s.1-.8.1-1.1c-.9,0-1.7-.1-2.5-.4s-1.7-.9-2.6-1.8c-.4-.4-.9-1-1.3-1.7c1.2-1.2,2.3-2.5,3.2-3.9c1.4-2.1,2.3-4.4,2.9-6.8.2-.9.4-1.9.7-3c.2-1,.6-2.1,1.1-3.1h2.6v12.6c0,.9,0,2-.1,3.2c0,1.2-.1,2.4-.2,3.6s-.2,2.3-.3,3.2c.3.1.6.2.9.2s.6.1.9.1l1.9-1.9c.6.4,1.2.8,1.9,1.2c1.5.8,3.4,1.2,5.8,1.2c2.5,0,4.7-.5,6.6-1.6s3.3-2.6,4.4-4.6c1-2,1.6-4.5,1.6-7.3c0-2.9-.5-5.3-1.4-7.1s-2.5-3.3-4.1-4.3ZM187.3,21c.5-1.1,1.2-2,2-2.6.8-.7,1.8-1,2.8-1c.9,0,1.7.3,2.2.9.6.6.8,1.6.8,2.9c0,1.4-.3,2.7-.9,4.1-.6,1.3-1.4,2.6-2.5,3.7-.9.9-2,1.7-3.2,2.4-.4-.8-.7-1.6-1.1-2.4-.6-1.4-.9-2.9-.9-4.4.1-1.3.3-2.5.8-3.6Zm3.1,30.6c-2,.9-4,1.3-6,1.3-2.2,0-3.9-.6-5.1-1.9s-1.8-3.1-1.8-5.6.7-4.6,2.1-6.3c.9-1.1,2.1-2.2,3.5-3.2l8.1,15c0,.1.1.2.1.2-.3.2-.6.4-.9.5Zm34-.5c-1.2,1.8-2.8,2.7-4.9,2.7-.8,0-1.7-.2-2.6-.5s-1.6-1-2.2-1.9-.9-2.2-.9-4v-10.7c.8-1.3,1.6-2.3,2.5-3.2s2.1-1.3,3.5-1.3c1.9,0,3.4.9,4.6,2.7s1.8,4.5,1.8,8.3c-.1,3.5-.7,6.1-1.8,7.9Z" fill="#0d0f1a"/><path d="M291.8,52.1c-.4.4-.9.8-1.5,1.1s-1.1.4-1.7.4c-.7,0-1.3-.3-1.6-.8-.4-.5-.6-1.4-.6-2.7v-12.1c0-1.7,0-3.4,0-5.2h6.2c.1-.7.1-1.5,0-2.2h-6.2c0,0,0-.1,0-.1c0-2.5.1-5,.3-7.5-.6-.1-1.2-.1-1.7,0-.3.6-.6,1.1-1,1.6s-.9,1-1.4,1.4-1.1.7-1.8.9c.1,1,.2,2.2.3,3.6c0,0,0,.1,0,.1h-3.6c0,.1,0,.1,0,.2-.1-.1-.3-.2-.4-.3-.8-.5-1.9-.7-3.2-.7-1.7,0-3.1.4-4.2,1.3-1.2.9-2.2,2.1-3.1,3.7c0-.9,0-1.7.1-2.6s.2-1.7.4-2.3c-1.5.3-3,.5-4.4.6s-2.8.1-4.1.1c-.1.7-.1,1.4,0,2.1h2.8c.4,2.7.5,5.3.5,8v4.5c0,1.4,0,2.7-.1,4s-.2,2.7-.4,4.1h-2.7c0,0,0-.1,0-.1h-2.8c-.4-2.7-.5-5.3-.5-8v-4.5c0-.9,0-2.1.1-3.4s.1-2.7.2-4s.3-2.5.5-3.4c-1.7.3-3.3.5-5,.6s-3.2.1-4.6.1c-.1.7-.1,1.4,0,2.1h3.1c.4,2.7.5,5.3.5,8v8.4c-.7,1.4-1.6,2.5-2.6,3.2s-2.1,1-3.4,1c-1.5,0-2.6-.5-3.2-1.5s-.9-2.1-.9-3.5v-7.6c0-.9,0-2.1.1-3.4s.1-2.7.2-4s.3-2.5.5-3.4c-1.7.3-3.3.5-4.8.6-1.6.1-3.1.1-4.5.1-.1.7-.1,1.4,0,2.1h2.8c.4,2.7.5,5.3.5,8v7.6c0,.6,0,1.1,0,1.7s-.1,1.1-.1,1.7c.7,1.3,1.6,2.3,2.7,3.2c1.1.8,2.6,1.3,4.6,1.3s3.7-.4,5-1.2c1.4-.8,2.5-1.9,3.5-3.3c0,.6,0,1.3-.1,2.1s-.2,1.6-.4,2.3c1.5-.3,3-.5,4.4-.6c1.3-.1,2.5-.1,3.7-.1c0,0,0,.1,0,.1c1.1-.1,2.2-.1,3.2-.1s2,0,3.1,0c1,0,2.1,0,3.2,0s2.6,0,4.5.1c.1-.7.1-1.4,0-2.1h-4.7c-.2-1.4-.3-2.8-.4-4.1s-.1-2.7-.1-4v-7.8c.8-1.5,1.6-2.7,2.3-3.5s1.5-1.2,2.4-1.2s1.5.4,1.8,1.2.3,1.9.2,3.3h5.4c.1-1.7,0-3.1-.4-4.2h2.4c0,.5,0,1.1,0,1.6c0,1.3,0,2.4,0,3.4v12.4c0,2.1.6,3.5,1.7,4.5c1.2.9,2.7,1.4,4.5,1.4c1.5,0,2.6-.2,3.4-.7s1.5-1.1,2.2-1.8c-.2-.3-.4-.6-.6-.8.1-.6-.2-.8-.5-1Z" fill="#0d0f1a"/><path d="M310.8,31.4c-1.8-1.1-4-1.6-6.4-1.6-2.5,0-4.6.5-6.5,1.6-1.8,1-3.3,2.5-4.3,4.5-1,1.9-1.5,4.2-1.5,6.9s.5,5.1,1.6,7.1s2.5,3.6,4.4,4.7s4,1.6,6.3,1.6c2.5,0,4.7-.5,6.5-1.6c1.9-1,3.3-2.5,4.3-4.5c1-1.9,1.5-4.2,1.5-6.9c0-2.8-.5-5.1-1.6-7.1-1-2.1-2.5-3.7-4.3-4.7Zm-.5,17.8c-.5,1.5-1.3,2.7-2.2,3.4-.9.8-2.1,1.1-3.4,1.1-1.4,0-2.6-.4-3.6-1.2s-1.9-2.1-2.4-3.8c-.6-1.7-.9-3.9-.9-6.5c0-2.4.3-4.3.8-5.9.5-1.5,1.3-2.7,2.2-3.4s2.1-1.1,3.4-1.1c1.4,0,2.6.4,3.6,1.2s1.8,2,2.4,3.7.9,3.8.9,6.5c-.1,2.6-.3,4.5-.8,6Z" fill="#0d0f1a"/><path d="M345,53.3h-3.1c-.2-1.4-.3-2.8-.4-4.1s-.1-2.7-.1-4v-7.6c0-.6,0-1.1.1-1.7c0-.6.1-1.1.1-1.7-.7-1.3-1.6-2.4-2.7-3.2s-2.7-1.2-4.9-1.2c-2,0-3.7.4-5.2,1.2s-2.7,1.9-3.6,3.3c0-.6,0-1.3.1-2.1s.2-1.6.4-2.3c-1.5.3-3,.5-4.4.6s-2.8.1-4.1.1c-.1.7-.1,1.4,0,2.1h2.8c.4,2.7.5,5.3.5,8v4.5c0,1.4,0,2.7-.1,4s-.2,2.7-.4,4.1h-3c-.1.7-.1,1.4,0,2.1c1.1-.1,2.2-.1,3.2-.1s2,0,3.1,0c1,0,2.1,0,3,0c1,0,2,0,3.1.1.1-.7.1-1.4,0-2.1h-3.1c-.2-1.4-.3-2.8-.4-4.1s-.1-2.7-.1-4v-8.4c.7-1.4,1.6-2.5,2.7-3.2s2.2-1,3.5-1c1.7,0,2.8.5,3.4,1.5s.9,2.1.9,3.5v7.6c0,1.4,0,2.7-.1,4s-.2,2.7-.4,4.1h-3.1c-.1.7-.1,1.4,0,2.1c1.1-.1,2.2-.1,3.2-.1s2,0,3.1,0c1,0,2.1,0,3,0c1,0,2,0,3.1.1.1-.8.1-1.5-.1-2.1Z" fill="#0d0f1a"/></g></g><g transform="matrix(.984757 0 0 0.98476 4.961472 1.056835)"><g transform="translate(0-.760127)"><g><path d="M56.8,64.8c-1.1-2.5-1.2-5.6-1.5-8.3-.1-.8-.4-1.7-.4-2.4c0-.1,0-.2,0-.3.1-.8.5-2,.6-2.7.9-5.2-.1-11.3-3-15.8.6-1.1.5-2.5-.9-1.3-2.4-2.6-5.8-4.1-9.2-4.9L44.7,28c7-4,8.1-14.6,1.2-19.3-4.3-3-9.4-2.5-14.4-2.6-.1,0-.2,0-.3.1-.3-.4-.3-1-.9-1.1-.6.8-2.4,2.2-3.4,2.3-.4,0-1.6-.5-2.1-.7-2.3-.7-4.5-.8-6.8-.5-1.4.2-2.8.5-3.9,1.3-.3,0-2.6-1.2-2.9-1.5s-.7-1-1.2-.9c-.7.2-.3,2.2-.1,2.7.3.8,1,1.3,1.6,1.9-.3.6-.7,1.1-1,1.7-1,2.5-.6,5.4-.5,8.1c0,.1,0,.1,0,.2-.6,1.2-1.4,2.3-2,3.5C5.1,29,6,36.1,5.7,42.4c0,.8-.7,2.6.7,1.9.7-.3,1.4-1.4,2-1.9.1-.1.1-.2.3-.1v.4l-1,8.4c0,.5-.1,1.3.4,1.6c1.1.6,2.8-1.1,3.2-2c.2,0,.1.4.1.6s-.2.7,0,.8c.2,0,.8-.2,1-.3c2.1-1,2.9-4.1,2.9-6.2l.2-.7v13.3c-.2,1.6-.2,3.7-1.3,5-.8,1-2.3,1.3-3.5,1.6l.1,2.4l24.2.2c-.6-1.7.3-2.9,1.8-3.4l-.6.6c-.6.7-1,1.8-.5,2.7.6.1,1.2.2,1.8,0-.6-2,1.3-3,3-3.2.5,0,1.1,0,1.6,0l-2.3,1c-.8.4-1.8,1.1-1.6,2.1l3.3.1c-.4-2.4,1.6-2.9,3.6-2.8.1,0,.8.2.7,0-.7-1.2-2-1.7-3-2.6-.5-.5-.9-1-1.4-1.5-.2,0-.1.2-.1.3.1.8.4,1.4.6,2.1c0,.1.1.1,0,.2-.3.1-1.2.1-1.5.1-3.2-.3-6.1-4.9-7.1-7.6-.8-2.4-1.2-5.2-.8-7.7c1.5.5,3.4.8,4.9.3.1,0,.3,0,.3-.2-2-.6-4.5-1.3-5.3-3.4-.8-1.9-.3-5.6,2-6.1c2.4-.5,5,1.2,5.7,3.5.1.3.3,1.2.2,1.5c0,.2-.4.6-.6.9-.6,1.5.2,2.7,1.3,3.7c1.2-1.2,1.8-2.5.9-4.1-.2-.4-.3-.2-.3-.9.1-3,3-4.9,5.8-4.6c2.4.3,2.9,4.3,2.1,6.1-1.5,3.6-6.7,2.2-8.4,6.1-1.9,4.2,2.1,9,5.1,11.7.4.4,2.1,1.5,2.2,1.9s-.1.9-.5.9c-1.2.2-3.2-.3-4.3.2-.7.3-1.5,1.1-1.4,1.9c2.6,0,5.2-.1,7.8,0c.8,0,1.7.5,1.5-.9.2.1.4.3.7.4s.6.2.8.3c.8.2,3.9.5,4.6.1.1-.1.2-.2.2-.4.1-.1-.8-1.5-1-1.9Zm-16-54.3c5.3,3,5,12.1.6,15.7-3.4,2.8-7.6,1.6-11.6,2c.2-1.4.6-2.7.7-4.1.1-1.3,0-2.7.1-3.9.3-3.7,1.3-6.1-.6-9.8-.2-.4-.6-.7-.5-1.2c3.7.4,7.9-.6,11.3,1.3Zm-30.2,37c-.1.2-.1.6-.4.8.2-2,.6-4,1-6l.1-.3c.2,1.9-.1,3.8-.7,5.5Zm10.1-3.2c.9-1.6-.4-2.7-1.9-2.8-.8-.1-2.1.2-2.8,0-.4-.1-.8-1.2-.8-1.5v-1.3c-.2-.2-1,1.1-1.1,1.3-.9,1.7-.7,3.8-.9,5.8-.1,1.2-.4,2.5-.8,3.6-.2,0-.1-.2-.1-.3.1-1,.1-2,.2-3c.1-1.5,0-3.1.1-4.5.1-.8.3-1.6.7-2.4.9-1.7,2.3-3.2,3.3-4.7c2.6-3.7,6.3-9.9,1.8-13.7-1.4-1.2-3.4-1.5-4.9-2.4-1.1-.6-1.9-1.5-2.1-3.2s.4-4.7,2.4-5c3-.4,5.7,1.9,5.9,4.9c0,.8-.4.9-.6,1.6-.4,1.4.3,2.4,1.2,3.4c1-.9,1.6-1.9,1.3-3.3-.2-1-.7-.9-.6-2.2.2-2.7,2.7-4.7,5.4-4.4c2.8.3,3.2,4.6,2.2,6.7-1.1,2.1-3.4,2.4-5.4,3.4.3.3.9.4,1.3.5c1.2.1,2.5-.1,3.6-.5.2.1.4,1.1.4,1.3.5,6.1-2.6,12.9-7.7,16.2-.1.1-.4.3-.5.2.3-1,.4-1.9.5-2.9c0,0,.1-.6-.1-.5-.7,1.5-1.4,3-2.4,4.3-.5.6-1.1,1.1-1.5,1.8c1.3,0,2.6-.2,3.8.5c1.5.6,1.5,2.5.1,3.1ZM45.8,35c-2.7-1.1-6.2-1-9-.2-.4.1-1.7.8-2,.8-.8,0-2.7-.8-3.3-1.3-.5-.3-1.4-1.5-1.6-.3-.3,1.5.8,3.4,2.2,3.9-.4.7-.8,1.3-1.1,2-.9,2.3-.3,4.3-.2,6.7.1,1.6-.2,3.3-.1,5c.2,3.9,2.1,7.8,4.6,10.7.1.1.8.7.7.9-.7,0-1.3.7-1.8,1-.7.3-6,.2-7.1.2-1.5-.1-4.1-.3-4.8-1.9-.4-.9-.2-1.3-.2-2.2c0-5.1,0-10.2,0-15.2c0-.4.5-.4.8-.6c1.3-.7,1.2-2.1.2-3.1-.1-.4-.3-.4-.4-.6c1.8.3,2.5,1.8,1.7,3.4c2.1-.2,2-2.6.7-3.7-.8-.7-1.8-.9-2.8-1-.1,0-.3.1-.2-.1c2.6-2.2,5-4.7,6.5-7.8.1-.1.1-.1.3-.2.6-.1,1.4.1,2.1.1c4.7,0,10.4-.8,14.3,2.6-.1.1.6.8.5.9Z" fill="#0d0f1a"/><path d="M36.6,40.2c-3.5.2-3.1,5.1.5,4.6c2.5-.3,2.2-4.7-.5-4.6Z" fill="#0d0f1a"/><path d="M45.3,40.3c-2.2.3-2.4,3.8-.3,4.5c3.5,1.1,4.2-5.1.3-4.5Z" fill="#0d0f1a"/><path d="M37.2,55.7c1.6,1.6,2.9.2,2.4-1.6-.4.3-.6,1.1-1.2,1.2-1,.1-1.1-1.1-1.3-1.1-.4.4-.4,1.1-1.1,1.2s-1.1-.7-1.4-1.2c-.3,0-.1,1,0,1.2.5,1.1,1.9,1.4,2.6.3Z" fill="#0d0f1a"/><path d="M37.5,51.7c-.5-.1-.6-1.1-.8-1.1s-.6,1-1.2,1.2c-.8.2-1-.7-1.4-1.2-.4,1.8,1.4,3.3,2.5,1.4.9,1.5,2.6,1,2.6-.8c0,0-.1-.7-.2-.5-.2.7-.7,1.2-1.5,1Z" fill="#0d0f1a"/><path d="M38.7,59.1c.8.8,2.2.9,2.4-.5.1-.4,0-.9,0-1.3-.5.4-.5,1.2-1.2,1.3-.9.1-1-1.1-1.2-1.1-.7,1.6-1.6,1.4-2.5.1-.2,0-.1.1-.1.2-.1,1.4,1.5,2.6,2.6,1.3Z" fill="#0d0f1a"/><path d="M24.5,16.5c3.7.6,3.7-5.1.1-4.6-2.5.4-2.4,4.3-.1,4.6Z" fill="#0d0f1a"/><path d="M15.5,12c-2.7.4-2.4,5,.7,4.6c2.9-.4,2.4-5.1-.7-4.6Z" fill="#0d0f1a"/><path d="M24.3,24.2c0-.1.2-.1.2-.1s0,.2.1.3c1.2,1.3,2.6.5,2.4-1.2c0-.1,0-.2-.1-.3-.3.7-1,1.6-1.8.9-.2-.2-.5-.8-.6-.9-.2-.1-.1.1-.1.1-.2.5-.3,1-1,1-.8,0-.9-.6-1.4-1-.4,1.5,1.4,3.1,2.3,1.2Z" fill="#0d0f1a"/><path d="M24.1,27.8c1.2,1.5,2.7.7,2.5-1.2c0-.1,0-.2-.1-.3-.1,0-.5,1.2-1.3,1.2s-.9-1.2-1.1-1.2c-.5.5-.6,1.2-1.4,1.2-.7,0-.7-.6-1-1-.1-.1,0-.1-.2-.1-.2,1.8,1.3,3,2.6,1.4Z" fill="#0d0f1a"/><path d="M23.1,31.4c.4,1,1.8.7,2.2-.1.1-.3.5-1.4,0-1.4-.2.4-.5,1-.9,1-1,.2-.8-.3-1.4-.9-.1,0-.4.6-.5.7-.8.7-1.5-.4-1.8-1-.2,0,0,1,0,1.1.4,1.4,1.4,1.4,2.4.6Z" fill="#0d0f1a"/><path d="M19.4,34.1c0-.4,0-.8,0-1.2-.3.4-.5.9-.7,1.3-.6,1-1.3,1.7-2.2,2.5c1.5-.1,2.8-1.1,2.9-2.6Z" fill="#0d0f1a"/></g><g id="eJ03RhYSu5g25_tr" transform="translate(13.100702,19.247914) rotate(0)"><g transform="translate(-13.100692,-19.247908)"><path d="M6.4,44.4c-1.4.7-.8-1.1-.7-1.9C6,36.1,5.1,29,8,23.2c.6-1.2,1.5-2.3,2-3.5c0-.1,0-.1,0-.2.9-.9,2.2-1.1,3.6-1.1c1.6.9,3.6,1.2,5,2.4c4.5,3.8.8,10-1.8,13.7-1,1.4-2.4,3-3.3,4.7m1-11.8l.7-1.3c-.2,2.1-1.5,4-3.7,4.4L13,29.3l1.5-1.9Zm-4.2-4c-.8,1.8-1.5,3.7-1.6,5.6c1.7-.7,2.7-2.2,3.8-3.6.1-.1.1-.2.2-.1-.9,2.1-2.6,4.2-4.8,4.8c0-2.3.8-4.8,2.4-6.7ZM7.4,36.2c.1-.7.4-1.4.6-2l1.3-2.8c-.5,1.7-1,3.4-1.8,5-.2.1-.1-.1-.1-.2Zm.3,4.2c1.3-3,2.9-6,4.8-8.6-1.2,3-2.5,6.3-4.8,8.6ZM16,32.5c-1.2,1.9-2.6,3.9-4.2,5.5l4.8-7.8c1.7-3,2.7-7.5-1.5-9-.3-.1-.6-.1-.8-.2-.1,0-.3,0-.2-.1.4,0,.9-.1,1.3,0c1.4.2,2.8,1.4,3.2,2.7c1.1,3.1-1,6.3-2.6,8.9Z" fill="#0d0f1a"/></g></g><g id="eJ03RhYSu5g27_tr" transform="translate(47.518225,49.672982) rotate(0)"><g transform="translate(-47.572125,-49.91317)"><path d="M56.8,64.8c-1.1-2.5-1.2-5.6-1.5-8.3-.1-.8-.4-1.7-.4-2.4c0-.1,0-.2,0-.3-1.8-4-4.4-5.1-8.4-4.6l-.9.4c-1.1.6-2.1,1.6-2.2,2.9-.3,3.6,3.3,7,5.8,9.6.2.2.4.3.5.5.1.1.2.2.2.2l-.1-.1c.9,1.3,1.2,3.1,2.3,4c.3.1.6.2.8.3.8.2,3.9.5,4.6.1.1-.1.2-.2.2-.4.2-.1-.7-1.5-.9-1.9Z" fill="#0d0f1a"/></g></g></g></g></svg>
