<svg id="ekw8ydX15721" xmlns="http://www.w3.org/2000/svg" xmlns:xlink="http://www.w3.org/1999/xlink" viewBox="0 0 512 543" shape-rendering="geometricPrecision" text-rendering="geometricPrecision" project-id="339a1cbf02e643338380dc5020f46c5b" export-id="1cfb3b9f330a4079b76cbe9701a8be36" cached="false">
<style><![CDATA[
#ekw8ydX157217_tr {animation: ekw8ydX157217_tr__tr 5000ms linear infinite normal forwards}@keyframes ekw8ydX157217_tr__tr { 0% {transform: translate(13.100702px,19.247914px) rotate(0deg);animation-timing-function: cubic-bezier(0.42,0,0.58,1)} 16% {transform: translate(13.100702px,19.247914px) rotate(13.048937deg);animation-timing-function: cubic-bezier(0.42,0,0.58,1)} 26% {transform: translate(13.100702px,19.247914px) rotate(7.225393deg);animation-timing-function: cubic-bezier(0.42,0,0.58,1)} 36% {transform: translate(13.100702px,19.247914px) rotate(10.882896deg);animation-timing-function: cubic-bezier(0.42,0,0.58,1)} 50% {transform: translate(13.100702px,19.247914px) rotate(0deg)} 100% {transform: translate(13.100702px,19.247914px) rotate(0deg)}} #ekw8ydX157219_tr {animation: ekw8ydX157219_tr__tr 5000ms linear infinite normal forwards}@keyframes ekw8ydX157219_tr__tr { 0% {transform: translate(47.518225px,49.672982px) rotate(0deg)} 12% {transform: translate(47.518225px,49.672982px) rotate(0deg);animation-timing-function: cubic-bezier(0.42,0,0.58,1)} 30% {transform: translate(47.518225px,49.672982px) rotate(-14.799257deg);animation-timing-function: cubic-bezier(0.42,0,0.58,1)} 40% {transform: translate(47.518225px,49.672982px) rotate(-7.532802deg);animation-timing-function: cubic-bezier(0.42,0,0.58,1)} 52% {transform: translate(47.518225px,49.672982px) rotate(-14.381088deg);animation-timing-function: cubic-bezier(0.42,0,0.58,1)} 74% {transform: translate(47.518225px,49.672982px) rotate(0deg)} 100% {transform: translate(47.518225px,49.672982px) rotate(0deg)}}
]]></style>
<g transform="matrix(8.187444 0 0 8.187473 4.934577-19.096051)"><g transform="translate(0-.760127)"><g><path d="M56.8,64.8c-1.1-2.5-1.2-5.6-1.5-8.3-.1-.8-.4-1.7-.4-2.4c0-.1,0-.2,0-.3.1-.8.5-2,.6-2.7.9-5.2-.1-11.3-3-15.8.6-1.1.5-2.5-.9-1.3-2.4-2.6-5.8-4.1-9.2-4.9L44.7,28c7-4,8.1-14.6,1.2-19.3-4.3-3-9.4-2.5-14.4-2.6-.1,0-.2,0-.3.1-.3-.4-.3-1-.9-1.1-.6.8-2.4,2.2-3.4,2.3-.4,0-1.6-.5-2.1-.7-2.3-.7-4.5-.8-6.8-.5-1.4.2-2.8.5-3.9,1.3-.3,0-2.6-1.2-2.9-1.5s-.7-1-1.2-.9c-.7.2-.3,2.2-.1,2.7.3.8,1,1.3,1.6,1.9-.3.6-.7,1.1-1,1.7-1,2.5-.6,5.4-.5,8.1c0,.1,0,.1,0,.2-.6,1.2-1.4,2.3-2,3.5C5.1,29,6,36.1,5.7,42.4c0,.8-.7,2.6.7,1.9.7-.3,1.4-1.4,2-1.9.1-.1.1-.2.3-.1v.4l-1,8.4c0,.5-.1,1.3.4,1.6c1.1.6,2.8-1.1,3.2-2c.2,0,.1.4.1.6s-.2.7,0,.8c.2,0,.8-.2,1-.3c2.1-1,2.9-4.1,2.9-6.2l.2-.7v13.3c-.2,1.6-.2,3.7-1.3,5-.8,1-2.3,1.3-3.5,1.6l.1,2.4l24.2.2c-.6-1.7.3-2.9,1.8-3.4l-.6.6c-.6.7-1,1.8-.5,2.7.6.1,1.2.2,1.8,0-.6-2,1.3-3,3-3.2.5,0,1.1,0,1.6,0l-2.3,1c-.8.4-1.8,1.1-1.6,2.1l3.3.1c-.4-2.4,1.6-2.9,3.6-2.8.1,0,.8.2.7,0-.7-1.2-2-1.7-3-2.6-.5-.5-.9-1-1.4-1.5-.2,0-.1.2-.1.3.1.8.4,1.4.6,2.1c0,.1.1.1,0,.2-.3.1-1.2.1-1.5.1-3.2-.3-6.1-4.9-7.1-7.6-.8-2.4-1.2-5.2-.8-7.7c1.5.5,3.4.8,4.9.3.1,0,.3,0,.3-.2-2-.6-4.5-1.3-5.3-3.4-.8-1.9-.3-5.6,2-6.1c2.4-.5,5,1.2,5.7,3.5.1.3.3,1.2.2,1.5c0,.2-.4.6-.6.9-.6,1.5.2,2.7,1.3,3.7c1.2-1.2,1.8-2.5.9-4.1-.2-.4-.3-.2-.3-.9.1-3,3-4.9,5.8-4.6c2.4.3,2.9,4.3,2.1,6.1-1.5,3.6-6.7,2.2-8.4,6.1-1.9,4.2,2.1,9,5.1,11.7.4.4,2.1,1.5,2.2,1.9s-.1.9-.5.9c-1.2.2-3.2-.3-4.3.2-.7.3-1.5,1.1-1.4,1.9c2.6,0,5.2-.1,7.8,0c.8,0,1.7.5,1.5-.9.2.1.4.3.7.4s.6.2.8.3c.8.2,3.9.5,4.6.1.1-.1.2-.2.2-.4.1-.1-.8-1.5-1-1.9Zm-16-54.3c5.3,3,5,12.1.6,15.7-3.4,2.8-7.6,1.6-11.6,2c.2-1.4.6-2.7.7-4.1.1-1.3,0-2.7.1-3.9.3-3.7,1.3-6.1-.6-9.8-.2-.4-.6-.7-.5-1.2c3.7.4,7.9-.6,11.3,1.3Zm-30.2,37c-.1.2-.1.6-.4.8.2-2,.6-4,1-6l.1-.3c.2,1.9-.1,3.8-.7,5.5Zm10.1-3.2c.9-1.6-.4-2.7-1.9-2.8-.8-.1-2.1.2-2.8,0-.4-.1-.8-1.2-.8-1.5v-1.3c-.2-.2-1,1.1-1.1,1.3-.9,1.7-.7,3.8-.9,5.8-.1,1.2-.4,2.5-.8,3.6-.2,0-.1-.2-.1-.3.1-1,.1-2,.2-3c.1-1.5,0-3.1.1-4.5.1-.8.3-1.6.7-2.4.9-1.7,2.3-3.2,3.3-4.7c2.6-3.7,6.3-9.9,1.8-13.7-1.4-1.2-3.4-1.5-4.9-2.4-1.1-.6-1.9-1.5-2.1-3.2s.4-4.7,2.4-5c3-.4,5.7,1.9,5.9,4.9c0,.8-.4.9-.6,1.6-.4,1.4.3,2.4,1.2,3.4c1-.9,1.6-1.9,1.3-3.3-.2-1-.7-.9-.6-2.2.2-2.7,2.7-4.7,5.4-4.4c2.8.3,3.2,4.6,2.2,6.7-1.1,2.1-3.4,2.4-5.4,3.4.3.3.9.4,1.3.5c1.2.1,2.5-.1,3.6-.5.2.1.4,1.1.4,1.3.5,6.1-2.6,12.9-7.7,16.2-.1.1-.4.3-.5.2.3-1,.4-1.9.5-2.9c0,0,.1-.6-.1-.5-.7,1.5-1.4,3-2.4,4.3-.5.6-1.1,1.1-1.5,1.8c1.3,0,2.6-.2,3.8.5c1.5.6,1.5,2.5.1,3.1ZM45.8,35c-2.7-1.1-6.2-1-9-.2-.4.1-1.7.8-2,.8-.8,0-2.7-.8-3.3-1.3-.5-.3-1.4-1.5-1.6-.3-.3,1.5.8,3.4,2.2,3.9-.4.7-.8,1.3-1.1,2-.9,2.3-.3,4.3-.2,6.7.1,1.6-.2,3.3-.1,5c.2,3.9,2.1,7.8,4.6,10.7.1.1.8.7.7.9-.7,0-1.3.7-1.8,1-.7.3-6,.2-7.1.2-1.5-.1-4.1-.3-4.8-1.9-.4-.9-.2-1.3-.2-2.2c0-5.1,0-10.2,0-15.2c0-.4.5-.4.8-.6c1.3-.7,1.2-2.1.2-3.1-.1-.4-.3-.4-.4-.6c1.8.3,2.5,1.8,1.7,3.4c2.1-.2,2-2.6.7-3.7-.8-.7-1.8-.9-2.8-1-.1,0-.3.1-.2-.1c2.6-2.2,5-4.7,6.5-7.8.1-.1.1-.1.3-.2.6-.1,1.4.1,2.1.1c4.7,0,10.4-.8,14.3,2.6-.1.1.6.8.5.9Z"/><path d="M36.6,40.2c-3.5.2-3.1,5.1.5,4.6c2.5-.3,2.2-4.7-.5-4.6Z"/><path d="M45.3,40.3c-2.2.3-2.4,3.8-.3,4.5c3.5,1.1,4.2-5.1.3-4.5Z"/><path d="M37.2,55.7c1.6,1.6,2.9.2,2.4-1.6-.4.3-.6,1.1-1.2,1.2-1,.1-1.1-1.1-1.3-1.1-.4.4-.4,1.1-1.1,1.2s-1.1-.7-1.4-1.2c-.3,0-.1,1,0,1.2.5,1.1,1.9,1.4,2.6.3Z"/><path d="M37.5,51.7c-.5-.1-.6-1.1-.8-1.1s-.6,1-1.2,1.2c-.8.2-1-.7-1.4-1.2-.4,1.8,1.4,3.3,2.5,1.4.9,1.5,2.6,1,2.6-.8c0,0-.1-.7-.2-.5-.2.7-.7,1.2-1.5,1Z"/><path d="M38.7,59.1c.8.8,2.2.9,2.4-.5.1-.4,0-.9,0-1.3-.5.4-.5,1.2-1.2,1.3-.9.1-1-1.1-1.2-1.1-.7,1.6-1.6,1.4-2.5.1-.2,0-.1.1-.1.2-.1,1.4,1.5,2.6,2.6,1.3Z"/><path d="M24.5,16.5c3.7.6,3.7-5.1.1-4.6-2.5.4-2.4,4.3-.1,4.6Z"/><path d="M15.5,12c-2.7.4-2.4,5,.7,4.6c2.9-.4,2.4-5.1-.7-4.6Z"/><path d="M24.3,24.2c0-.1.2-.1.2-.1s0,.2.1.3c1.2,1.3,2.6.5,2.4-1.2c0-.1,0-.2-.1-.3-.3.7-1,1.6-1.8.9-.2-.2-.5-.8-.6-.9-.2-.1-.1.1-.1.1-.2.5-.3,1-1,1-.8,0-.9-.6-1.4-1-.4,1.5,1.4,3.1,2.3,1.2Z"/><path d="M24.1,27.8c1.2,1.5,2.7.7,2.5-1.2c0-.1,0-.2-.1-.3-.1,0-.5,1.2-1.3,1.2s-.9-1.2-1.1-1.2c-.5.5-.6,1.2-1.4,1.2-.7,0-.7-.6-1-1-.1-.1,0-.1-.2-.1-.2,1.8,1.3,3,2.6,1.4Z"/><path d="M23.1,31.4c.4,1,1.8.7,2.2-.1.1-.3.5-1.4,0-1.4-.2.4-.5,1-.9,1-1,.2-.8-.3-1.4-.9-.1,0-.4.6-.5.7-.8.7-1.5-.4-1.8-1-.2,0,0,1,0,1.1.4,1.4,1.4,1.4,2.4.6Z"/><path d="M19.4,34.1c0-.4,0-.8,0-1.2-.3.4-.5.9-.7,1.3-.6,1-1.3,1.7-2.2,2.5c1.5-.1,2.8-1.1,2.9-2.6Z"/></g><g id="ekw8ydX157217_tr" transform="translate(13.100702,19.247914) rotate(0)"><g transform="translate(-13.100692,-19.247908)"><path d="M6.4,44.4c-1.4.7-.8-1.1-.7-1.9C6,36.1,5.1,29,8,23.2c.6-1.2,1.5-2.3,2-3.5c0-.1,0-.1,0-.2.9-.9,2.2-1.1,3.6-1.1c1.6.9,3.6,1.2,5,2.4c4.5,3.8.8,10-1.8,13.7-1,1.4-2.4,3-3.3,4.7m1-11.8l.7-1.3c-.2,2.1-1.5,4-3.7,4.4L13,29.3l1.5-1.9Zm-4.2-4c-.8,1.8-1.5,3.7-1.6,5.6c1.7-.7,2.7-2.2,3.8-3.6.1-.1.1-.2.2-.1-.9,2.1-2.6,4.2-4.8,4.8c0-2.3.8-4.8,2.4-6.7ZM7.4,36.2c.1-.7.4-1.4.6-2l1.3-2.8c-.5,1.7-1,3.4-1.8,5-.2.1-.1-.1-.1-.2Zm.3,4.2c1.3-3,2.9-6,4.8-8.6-1.2,3-2.5,6.3-4.8,8.6ZM16,32.5c-1.2,1.9-2.6,3.9-4.2,5.5l4.8-7.8c1.7-3,2.7-7.5-1.5-9-.3-.1-.6-.1-.8-.2-.1,0-.3,0-.2-.1.4,0,.9-.1,1.3,0c1.4.2,2.8,1.4,3.2,2.7c1.1,3.1-1,6.3-2.6,8.9Z"/></g></g><g id="ekw8ydX157219_tr" transform="translate(47.518225,49.672982) rotate(0)"><g transform="translate(-47.572125,-49.91317)"><path d="M56.8,64.8c-1.1-2.5-1.2-5.6-1.5-8.3-.1-.8-.4-1.7-.4-2.4c0-.1,0-.2,0-.3-1.8-4-4.4-5.1-8.4-4.6l-.9.4c-1.1.6-2.1,1.6-2.2,2.9-.3,3.6,3.3,7,5.8,9.6.2.2.4.3.5.5.1.1.2.2.2.2l-.1-.1c.9,1.3,1.2,3.1,2.3,4c.3.1.6.2.8.3.8.2,3.9.5,4.6.1.1-.1.2-.2.2-.4.2-.1-.7-1.5-.9-1.9Z"/></g></g></g></g></svg>
